<svg xmlns="http://www.w3.org/2000/svg" width="60" height="30"><g fill="none"><path d="M10 16h38v38H10z"/><path fill="#02b3e4" d="M59.78 28.22l-1-1.8L44.93 1.48c-.5-.84-1.48-1.33-2.3-1.5 0 0 0 0-.17 0H17.53s0 0-.17 0c-.82 0-1.8.66-2.3 1.5L1.18 26.4l-1 1.82c-.5.83 0 1.5.82 1.5h24.75c.83 0 2-.67 2.48-1.5l1.65-2.97 1.66 2.97c.5.83 1.48 1.5 2.47 1.5H58.8c1.14 0 1.47-.67.98-1.5zM38.48 3.3l-8.4 15.18L21.64 3.3zM25.62 26.4H5.16L18.02 3.48l10.23 18.48zm8.93 0l-2.48-4.45L42.28 3.47 55.16 26.4z"/></g></svg>